<?xml version="1.0" encoding="UTF-8"?> <svg xmlns="http://www.w3.org/2000/svg" xmlns:xlink="http://www.w3.org/1999/xlink" id="Layer_1" viewBox="0 0 861.73 133.23"><defs><style>.cls-1{fill:url(#Labs);}.cls-2{fill:url(#Labs-2);}</style><linearGradient id="Labs" x1="1.08" y1="66.07" x2="160.27" y2="66.07" gradientUnits="userSpaceOnUse"><stop offset="0" stop-color="#327fef"></stop><stop offset=".15" stop-color="#3380ea"></stop><stop offset=".31" stop-color="#3886de"></stop><stop offset=".48" stop-color="#3f8fc9"></stop><stop offset=".64" stop-color="#4a9bac"></stop><stop offset=".81" stop-color="#58ab87"></stop><stop offset=".97" stop-color="#68bf59"></stop><stop offset="1" stop-color="#6cc351"></stop></linearGradient><linearGradient id="Labs-2" x1="76.48" y1="66.07" x2="235.68" y2="66.07" xlink:href="#Labs"></linearGradient></defs><path class="cls-1" d="m123.09,76.01h-9.43c-3.2,0-6.34-.28-9.4-.79-2.23-.37-4.42-.88-6.56-1.5-8.35-2.44-15.93-6.73-22.22-12.41-1.55-1.4-3.02-2.89-4.41-4.45-9-10.09-14.48-23.38-14.48-37.93V.61h-17.81v18.33c0,18.78,6.96,35.95,18.42,49.11.31.36.61.72.93,1.08l4.81,4.85.46.47c1.59,1.6,3.48,4.22,3.48,7.61,0,1.61-.39,3.13-1.07,4.47-.13.26-.28.52-.44.77-1.88,3.01-5.31,4.85-8.87,4.69-4.73-.22-8.32-4.45-11.36-7.62-16.26-17.02-26.26-40.07-26.26-65.42V.61H1.08v18.33c0,29.87,11.7,57.06,30.75,77.23.34.36.68.71,1.02,1.07l4.15,4.06c1.21,1.12,2.43,2.22,3.69,3.29,11.31,9.65,24.55,17.11,39.06,21.7.93.29,1.86.58,2.8.85,9.89,2.85,20.33,4.38,31.12,4.38h8.91v-12.43c0-2.97-2.41-5.38-5.38-5.38h-3.53c-6.32,0-12.5-.63-18.49-1.82-3.01-.6-6.15-1.04-9-2.22-3.87-1.6-6.28-5.07-6.28-9.3,0-1.61.39-3.13,1.07-4.47.13-.26.28-.52.44-.77,1.24-1.99,3.19-3.52,5.43-4.23,2.85-.91,5.63-.14,8.42.59,6,1.56,12.21,2.33,18.4,2.33h9.43c10.68,0,19.37,8.69,19.37,19.37v18.33h17.81v-18.33c0-20.5-16.68-37.18-37.18-37.18Z"></path><path class="cls-2" d="m113.67,56.12h9.43c3.2,0,6.34.28,9.4.79,2.23.37,4.42.88,6.56,1.5,8.35,2.44,15.93,6.73,22.22,12.41,1.55,1.4,3.02,2.89,4.41,4.45,9,10.09,14.48,23.38,14.48,37.93v18.33s17.81,0,17.81,0v-18.33c0-18.78-6.96-35.95-18.42-49.11-.31-.36-.61-.72-.93-1.08l-4.81-4.85-.46-.47c-1.59-1.6-3.48-4.22-3.48-7.61,0-1.61.39-3.13,1.07-4.47.13-.26.28-.52.44-.77,1.88-3.01,5.31-4.85,8.87-4.69,4.73.22,8.32,4.45,11.36,7.62,16.26,17.02,26.26,40.07,26.26,65.42v18.33s17.81,0,17.81,0v-18.33c0-29.87-11.7-57.06-30.75-77.23-.34-.36-.68-.71-1.02-1.07l-4.15-4.06c-1.21-1.12-2.43-2.22-3.69-3.29-11.31-9.65-24.55-17.11-39.06-21.7-.93-.29-1.86-.58-2.8-.85-9.89-2.85-20.33-4.38-31.12-4.38h-8.91s0,12.43,0,12.43c0,2.97,2.41,5.38,5.38,5.38h3.53c6.32,0,12.5.63,18.49,1.82,3.01.6,6.15,1.04,9,2.22,3.87,1.6,6.28,5.07,6.28,9.3,0,1.61-.39,3.13-1.07,4.47-.13.26-.28.52-.44.77-1.24,1.99-3.19,3.52-5.43,4.23-2.85.91-5.63.14-8.42-.59-6-1.56-12.21-2.33-18.4-2.33h-9.43c-10.68,0-19.37-8.69-19.37-19.37V.61s-17.81,0-17.81,0v18.33c0,20.5,16.68,37.18,37.18,37.18Z"></path><path d="m284.97,51.68h19.15l29.3,79.8h-15.85l-5.7-16.3h-34.77l-5.7,16.3h-15.73l29.3-79.8Zm23.03,52.33l-13-36.94h-.91l-13,36.94h26.9Z"></path><path d="m322.81,72.2h13.79l11.06,45.03h.46l12.88-45.03h12.65l12.88,45.03h.46l11.06-45.03h13.91l-16.19,59.28h-16.42l-11.97-39.9-12.08,39.9h-16.42l-16.07-59.28Z"></path><path d="m409.34,115.97c0-12.31,9.69-15.85,20.52-17.33l11.06-1.48c5.81-.8,7.52-1.82,7.52-4.9v-1.25c0-7.18-4.33-9.35-10.72-9.35s-11.51,2.17-11.51,8.66v1.25h-13.68v-2.62c0-11.51,7.87-17.9,25.54-17.9s24.74,6.27,24.74,19.38v41.04h-14.02v-10.6h-.57c-1.25,3.31-6.61,11.74-19.84,11.74-10.03,0-19.04-4.79-19.04-16.64Zm23.83,6.04c9.35,0,15.28-6.27,15.28-11.06v-7.52c-.8,1.37-3.65,2.05-6.95,2.51l-9.46,1.48c-6.16.91-8.09,3.76-8.09,7.3,0,4.56,3.08,7.3,9.23,7.3Z"></path><path d="m497.69,83.14c-7.98,0-13.79,4.79-13.79,14.48v33.86h-14.59v-59.28h14.59v12.2h.46c1.14-5.13,6.84-13.34,19.38-13.34,11.63,0,20.63,7.07,20.63,23.14v37.28h-14.59v-33.86c0-9.69-4.22-14.48-12.08-14.48Z"></path><path d="m557.53,120.53c7.52,0,13.11-4.33,13.79-13l.11-35.34h14.59l-.11,59.28h-14.59v-12.2h-.46c-1.14,5.13-6.84,13.34-19.38,13.34-11.63,0-20.63-7.07-20.52-23.14v-37.28h14.59l-.11,33.86c0,9.69,4.22,14.48,12.08,14.48Z"></path><path d="m599.94,47.46c4.33,0,8.21,3.53,8.21,8.21s-3.88,8.21-8.21,8.21-8.32-3.53-8.32-8.21,3.88-8.21,8.32-8.21Zm-7.3,24.74h14.59v59.28h-14.59v-59.28Z"></path><path d="m631.97,51.68h14.93v66.69h37.85v13.11h-52.78V51.68Z"></path><path d="m687.83,115.97c0-12.31,9.69-15.85,20.52-17.33l11.06-1.48c5.81-.8,7.52-1.82,7.52-4.9v-1.25c0-7.18-4.33-9.35-10.72-9.35s-11.51,2.17-11.51,8.66v1.25h-13.68v-2.62c0-11.51,7.87-17.9,25.54-17.9s24.74,6.27,24.74,19.38v41.04h-14.02v-10.6h-.57c-1.25,3.31-6.61,11.74-19.84,11.74-10.03,0-19.04-4.79-19.04-16.64Zm23.83,6.04c9.35,0,15.28-6.27,15.28-11.06v-7.52c-.8,1.37-3.65,2.05-6.95,2.51l-9.46,1.48c-6.16.91-8.09,3.76-8.09,7.3,0,4.56,3.08,7.3,9.23,7.3Z"></path><path d="m762.39,122.93v8.55h-14.59V51.68h14.59v29.07c2.85-5.59,9.69-9.69,18.35-9.69,12.77,0,26.11,9.12,26.11,30.78s-13.34,30.78-26.11,30.78c-8.66,0-15.5-4.1-18.35-9.69Zm14.93-2.51c8.21,0,15.85-5.81,15.85-18.58s-7.64-18.58-15.85-18.58-15.62,5.81-15.62,18.58,7.64,18.58,15.62,18.58Z"></path><path d="m809.47,112.78h13c.8,6.27,5.59,8.78,12.43,8.78,6.27,0,10.72-2.17,10.72-7.18,0-3.65-2.39-5.47-6.95-6.38l-10.94-2.39c-11.97-2.74-16.64-9.01-16.64-16.99,0-11.17,9.58-17.56,23.83-17.56,15.05,0,23.6,7.18,23.83,19.72h-12.08c-.91-6.5-5.24-8.66-11.63-8.66s-9.8,2.17-9.8,6.27c0,3.42,2.39,5.59,7.18,6.5l11.29,2.51c9.35,2.17,16.99,6.27,16.99,16.64,0,13.11-12.08,18.58-25.99,18.58-15.16,0-25.08-6.5-25.19-19.83Z"></path></svg> 